<svg width="1165" height="208" viewBox="0 0 1165 208" fill="none" xmlns="http://www.w3.org/2000/svg">
    <path d="M111.385 97V24.2727H140.079C145.595 24.2727 150.294 25.3262 154.177 27.4332C158.059 29.5166 161.019 32.4167 163.055 36.1335C165.114 39.8267 166.144 44.0881 166.144 48.9176C166.144 53.7472 165.102 58.0085 163.019 61.7017C160.936 65.3949 157.917 68.2713 153.964 70.331C150.034 72.3906 145.275 73.4205 139.688 73.4205H121.4V61.098H137.202C140.162 61.098 142.6 60.589 144.518 59.571C146.459 58.5294 147.903 57.0971 148.85 55.2741C149.821 53.4276 150.306 51.3087 150.306 48.9176C150.306 46.5028 149.821 44.3958 148.85 42.5966C147.903 40.7737 146.459 39.3651 144.518 38.3707C142.576 37.3527 140.114 36.8438 137.131 36.8438H126.762V97H111.385ZM255.508 24.2727V97H240.132V24.2727H255.508ZM329.389 36.9503V24.2727H389.119V36.9503H366.854V97H351.655V36.9503H329.389ZM478.332 24.2727V97H462.956V24.2727H478.332ZM554.983 97V24.2727H570.36V56.3395H571.318L597.49 24.2727H615.921L588.932 56.8366L616.24 97H597.845L577.923 67.0994L570.36 76.3324V97H554.983ZM687.928 97V24.2727H703.305V84.3224H734.484V97H687.928ZM824.043 24.2727V97H808.667V24.2727H824.043ZM961.525 24.2727V97H948.244L916.603 51.2259H916.07V97H900.694V24.2727H914.188L945.58 70.0114H946.22V24.2727H961.525ZM1053.61 24.2727V97H1038.23V24.2727H1053.61Z" fill="url(#paint0_linear_15_22)"/>
    <defs>
    <linearGradient id="paint0_linear_15_22" x1="0" y1="104" x2="1165" y2="104" gradientUnits="userSpaceOnUse">
    <stop stop-color="#FFA104"/>
    <stop offset="0.655166" stop-color="#7C4E01"/>
    <stop offset="0.822539" stop-color="#5A3901"/>
    <stop offset="1" stop-color="#362200"/>
    </linearGradient>
    </defs>
    </svg>
